/* XPM */
static char *metaltilebw880[] = {
/* columns rows colors chars-per-pixel */
"128 128 61 1 ",
"  c black",
". c #0E0E0E",
"X c #101010",
"o c gray9",
"O c #191919",
"+ c gray11",
"@ c #222222",
"# c gray14",
"$ c #2A2A2A",
"% c #313131",
"& c #373737",
"* c gray23",
"= c gray24",
"- c #434343",
"; c gray27",
": c #494949",
"> c gray30",
", c #515151",
"< c gray34",
"1 c #5B5B5B",
"2 c gray37",
"3 c gray39",
"4 c #676767",
"5 c #686868",
"6 c #6C6C6C",
"7 c #727272",
"8 c #767676",
"9 c gray48",
"0 c #7E7E7E",
"q c #818181",
"w c gray52",
"e c #888888",
"r c gray55",
"t c #929292",
"y c gray59",
"u c gray60",
"i c #9F9F9F",
"p c #A0A0A0",
"a c #A7A7A7",
"s c gray67",
"d c #AFAFAF",
"f c gray69",
"g c #B6B6B6",
"h c #BBBBBB",
"j c #BCBCBC",
"k c #C0C0C0",
"l c #C5C5C5",
"z c gray79",
"x c #CECECE",
"c c gray82",
"v c #D7D7D7",
"b c gray86",
"n c #DDDDDD",
"m c #E1E1E1",
"M c #E4E4E4",
"N c #EAEAEA",
"B c #ECECEC",
"V c gray94",
"C c gray97",
"Z c #F8F8F8",
"A c gray100",
/* pixels */
" X.X............................ ...................................X.X .X.X.X.X ..X.XX.XX.X..X .X .X. X. .X . X XXX  X XXXXX X ",
" X.&&%%&%&&%&&.&&.&.X.&%&X%&&%&.&.%&&%%&&%%&%&X&&%%&&%%&&&%&&.%&&&&..XXXXXX.XXXX&...&..X.XXXX.XXXX..XX&XX.XX&XX.&XXXXXXXXXXXXXXX",
" X&36&578696668846486876446696666448646666666466886676666676667766*4644=4744*446447666=66474444=4674*444*4444444=45=4=343*21&&<%",
" X127890q0qw7799999w97w799wwww9w99ww990w090w90www9w09w909797999907097-97096;90770907770079-7-9-977079-7-07-7-09-00;0;09-87*7&1&&",
" X23407e9ttyywtyeyytytettyte00tyeyty0yyyet09eyyteeyytywyy0weeew0eeee0e:eee0e:0e:0eeee9eeeeeee:0:ee0w0:ee0ee:er:e0:0>r009;655*2%%",
" XX90e80>,,eeeywptypwyepypewpwyppppypppewyyppppeppwpyppyyyywypyypyueyyyye,yye,yyeyyeyyeyeeeyy,yyeeeyywyutyey,eyy,u,<<O,,>9084&1&",
" X=0erqoO11O1yayyfpptfffptpypadpfffffffppppfffftappfapppppypfppffpypyppaypyy1ppypyypyppyypp1yayyapy1pypyyyp<aa1yu1O++++O,>87=*2%",
" X59wr,OO3++2ppppfkpjfkkppfpppjfdddffjjjfjkkjkffjdjddpfffffjkfpdfippddppf2fpfpfffpfpffdif2pfpfdpp3fffppfafp3p22g34+@@+@+O,qq-4*%",
" *5eewO23kf5+4djdjshxxxjdshdhxxsjjsdxhhjxxzhjsshjxjxjjjjjjjjshjjshdjjjsdjj4djdj4djdhjj4hjjjjhddh444jsjjhjd4j44d555@#655 +1t:75*&",
" o7wtt2+fbh776hzhzgbbgggzgbblbzllgglblzlbbbbzzzznzzzzzzzgzzgzbgzzhlzzghz66zzzzhzxzzzhhzhh6zzzzzhzzzzzhhh6xz6xz6x78#7887@+1rq:=4%",
" o;0ey+57zz8@8lbklNNklkbkvvNNNvvNvvvkvvvNvNvvvvvvvvklvkvvblvbvklvvvllvblbbvbl7vkllblll78bvbvlvl8vbbvlbvb8llb7bbz9##$09##@2py9-*%",
" X;uad46@#q0@vccMMcMcMxccZZZxxCCZZmmMcmCCmxMMmMMMMccMcMMmMMmMMMMMmcMcm9cMMccMvMMMccMM9cMMMcM9Mc9MMcMcM99M90M0cN0qq$$$$$#@ssu074&",
" X8tsd47@##qqbbvBNAvvvvcNAAAAAAANNNNNAAANNBNNBNBNNvNBNBNNBNNvvvNNvNbbNNNNvBN0BNbbvN0BNBBNBNbNbNBNBNbv0vBqBBqBBnqVw$$  $#64s<r0=&",
" o:upjdj9qqqbvBBAAvvNNvvNAANANAANNAAAAANNNNBANBNNvNBvBNvBNvvNvNBBv0vNBvNNNbbNBNNv0NBbbNBBNvNvvNBvbbNB0BbBbqBbqqBqnw$wwq96s2uq04%",
" X9wddjxzbvbvNvANvvvAANvNANAAAANANAAAANvvNBNNBvNBNBNNNvNNBvNvNANvBNNN0NBBN0NvNNBNBvbNvNNbNNvNbbBNNBv0BqBqbNBbBBqBnqnww0l64srr84%",
" o;wtidnnbBvvbAAvvcvvvNANvANAvNNNAAANNvNABNAABNvNBNBNBNBvNNvNNNBvNvNBNBNvBNvNbNvNNNNNNNvNvv0NNNBBb0bBqbNBqBqBBVbqBnqBqN86hdrq861",
" X:wtdzxzBvbNvNAvNvNNNNANAAAAANNANAAANNANBNABNvNBNANvNBNvNvNANvvNBNBNBNBNNBNBvNNvNvvNBNBbNNBNBBBb0NbvbBBBBqBbqqBqBBnqVvvgssur041",
" o;widdhzNvNAAvvvvNvvANvvNNNANvvNAAAvvABBNBNNvNBNBNBNBNvNvNANvNvvNvNBNNvvNNBvvvvAvvNBNvvNvNNbNNBNB0N0BBqbBbB0BqbVqqBBqM7ggirr06%",
" o;ttidhzNNvANAANcvvANNNvvNvNNNNAANNNANNBNNBvNBNBNBNBNBNvNNNNvBvvBNBNBNBNNvbNBvNNANBvvvvNBNvNNbB0B0bBbNBNBBBBqBbbqqBqBMvgssrr7=&",
" X;tiishlNANNANNvvNAvvAvvvNNNNNANABNNANNAABNNBNBNBNNvBNvNAvvvNNNNNBNBNBNNvvNvNNvAABNvNNNvNBBNNvNNbBB0NvbBqB0b0BqBBBqBBcclhaur74<",
" o8qtidnBvAANAAANNAN0vAvvANBNAANNBvBNBNBNBNBNBANvNBNNBvNBvNNBNBvBNNNvvvNNBvvvvNNANNNNvvABNBNNN0bB0BbNNbBbB0qvBbBBb0BqbMvgauuq04<",
" o;isizxnAvAAAANANNNNAANANBNAAANvNNNBNBNBNANAABNNANBNNANNBNBNNNBNABvNNANNvNNNNAAAANNANANNBNBvvNvNBbNbBvNNv0vvbNBv0vNNNcvghsi>7=%",
" X;iidxhlAvNNAANANvAvNANNNNNNANvNBvBNBNBNNBAABNBNvBAvABNvNBNBvBNBNNBNBNBvNNANAAAANAAAAANANNNNNNNNvNvbN0BbNbN0Bvv0NBbBNMclasrr041",
" o;rihxmBNNMAAAANANANANNAAAAAAvNBNNNBNBNBNNAANBNBNBNvBNvNBNBNBNANBBNBNvNBNABNAAAvvvvAAAANABvvNbNBvNvNBBNv0NbNbB0BqbNBvMvlasuq84%",
" o;tdjxnbAAAAAAAAAAAAAAANAAANNNBBNBNBNNBNAANNBNBvNNNANBNNBNvNBBNBNBNANBNBANAAAAAvvvcvAAANNvNNBNBNBNbNvvvNNBBbN0bBNbNbNmvl3sr:84%",
" X;ushxzBANvNMMNAAAAANNNAANNBvvNNBNBNBBNAAABBNBNBNAANBNBBNBNNANBvNNvNvNAANAANv9vvvNvNvvvvNNNBNvNBNBNNvbNvbbNbNNbBNvvNBmlfhsir7*&",
" o;udjxnBANNANNAANAAvMAAAANvvBNBBNBNvNBAANNNNvNBNNBvvNBNNvNBANBNBNBvvNANNAANNvvvvNbvvvvvAvNvAAvNNBNNBNvNvvNNN0bNBNvNNAxkggsu08*&",
" X8iijxnBANAANAAAAANNAAAAAvNNNNvNvNBNBNAANBNvNBNBANBvANBBNBNNBNBNANNBNAcNANBNvNvNvvvvvvvNvANNNvvBNvvNvNNBNNbvNNNvvNAAvmvlhsuq74%",
" o;usjxnBAAANAAAAAMNAAAcNvNvNBNvNvNNNAAANNBNNNAANBNNANNBNBABvNBNBvvvAANNAAAvvvvvNbNBbv0bvvBNAvNBABNBBBvNNBvNNNbNANBNANmMlgdrq04%",
" X9usjxnbAAAAAAAANvNAANNvNBNvNBNvNvNAAANANNBANAAANvNANNNAAANNBNBNvNANNAAANAvvvbNvNvvbvvvvb0NNNAvvNBNvNNBABNBNANBNBvvNvMvghuu0q6&",
" X;idjxzBcAAAAAANMAAAAAvNNNBNBNvvvBNANNBNvNANNANNNANNNNANBvNBNNNvvNANAAANvNNNcvvABvbvbNvNvvAbvNNvvNNNNBANNNNbNNNAAvNvNcvgg1rq75&",
" o;udjxnbNAAAAAAAANAANNNAABNBNNvNvNNvBBNBNNNANNANvANvAAANNNBNBNNNAAAAAvNAAAAvvvvNNNBvvvbbvvAvN0vvvvvvvbNv0vvvvvNAAvNvvcklair084%",
" o8udhxnbAANAAMvANAANNNANNBNANBNBNBNvNNvNANAANNNMANNAANAANNAANvAAANANNNANAvNNNAvvNbNvvBvbAvbbvbNNBNNBvv0bvvvvvAvNAvcvvCvgsurq841",
" X;iihhzBAANANNNAAANNNANANABBNNBNBNvNvvNNNNANNNAvANAAAANNNNAvNNAAANNANNNAvNAvvNNvvvvNNbvvvvvvvvvAvNAvbbvvvvvvvAvNvNvAv9klghrq84%",
" o;ushxnBAAANMANAMNvAAANANNNvNNANvBN0NNBNAAANNAANNAMAANvNAvNNANNvAAvANvcvNNvANvvvvBAvvNbvvbNvNvNNvvvvvvvNvNANANvvNANvvMMvaurq04%",
" X;idhxnBAANNAAANNNMAAAMNANBBNANNBNBBNANAAANANANNAAAANANANNNAAANNAANABvvNvANAAANvvNAvvvvbNvvvbvvbvNvNvbvvvvNNvvNvvAbvvZNgairqw4&",
" X8upjxnbANMAAAANvNNAANAANNNNNNNvNNvNNNNANNAMANNAAAANAvNNNNNAAAANNANvvANvvvvNvNvvNAvvNvvNvvbbvvvNvvbvbvAvNvANNvvvvNvvvZkgaut0e4&",
" o9rdjxnBNNAAAANNAAAANAAANNNNAvvNBvBNBAANNNAAANANAAANcNANNNAAANANNNAAvANAvAAvcvvANvvvvvNvvvvNvvNAvvNvNvvvvAvANNvvNbNvNxvlairq74%",
" o;idhxnbANAAANNAAAAANAANAAANNNBBNBNBAANAAAANAAAAAAAAAANMAAAAAAAAcANNNvNNvANvvvAAvNBvAANbNNNNvAvvNNvvvNvvAvvNNvNAvvNvvmlggurq74%",
" X8ushxzvAAANNvNAANNNMAAAAAANvBNvNANAANNMAANMAAAAANAAANNNANANNAMNNAvNAvNvANvvvAvvvvvvAvvvNAvvNAvvvAvvNvAAvNvABvvNvvvvNckgsiur741",
" X8udjjzbAANNNNANNNNNANMAAANNNNNNANAANNNAAANAAAAAANNNANMAAAMAMANAANNNvvvAAcvvNNvvvvvvNvNvvNvNvvvNvvNAvvvvNNAvvAvvvNvvBckgasrt8*%",
" o;tiixnBMANNAANNNNNNNNAAANAAANANAAANAvAANMAAAvAAAAAAAAAAAANAANAAANvAvAvvvvAAvvvvvvNNbvNvNbNvvNbNbvAcANAvvAANAvvNvvvvBmkvaut:84&",
" X;trdxnVANNNNNNBNNANNNANMAAAcAAAAANNMNANAAAAAcAAAAAMAANAAANAAAAAANANvvcvvvAAvvvNbNvBNNvvNvvvvvNvANvAvvBNAvvAvvcNvvvAACvlsurq8*%",
" o;widxnVNNNNBNBNNNNNNANNNAAAAAAAMvNNAAANAANAANAAANMAAANANAANAAANNBvvNvvvNNANvvvBNNAvBNvvvvvvAvNvNvvvvvNAcvNvNNAvvvbNvxvgsur074&",
" X;tihhnBAAANNBNANNAAAANAANNAAANANNMAANMAAAAAANAANAAAANANAAAAAANvNANvNNNNNNNvvvvNvBNvvNbvvvNvvvvNANvvvAAvANNvANvvAvNvNcllautq04%",
" o;tdjxzbAANNNBNNNAAAANMAANAANAAAvNAAAAAAAAAAAMNAAAAAANNvMNNAAANNvNANAvAAvvNv0vvbvANvvNvvbvvNvvvvAAANcAvNAvvAAvvNAvNAvxkgsir084&",
" o;tdhxmBANNNNNNNAANANNAANMAAAAANMNNNAAAAAANAANNAAAAAAAMNvNAAAANNvvvvBNAvvANNvNvvvNvvvAvvNvAAvvvvvvvBNNNAANAAAvANNAvvvmlg3ur0;4<",
" X;tijjnBANNNNNNAAAAMNAANNAAAAANvAANAAAAAAAAAAMvAAAAANAANcAAAAAAvNAvvNANvvAvvvvvvvvvvvvvvvvNNvvbvvvvAvvAANNAvANNNvvAvbckgairq04%",
" X;tsdxnBAANAANNNAANAAAANAAAAAMNAAAANNAAAAAAAAAAAAMNANAAAAMAAANNANvvNAvNAvvvAvNNAvvvvANNbvAvANvNvbvNvvANvNAAcAAAAANvNbxkzsurr84%",
" o8tijxnBANAANNAMANNAAAANAAAAAAAAAAAAAANAAAAANAAAAAAAANANAAANAAAcvNvAAvvNvvNNvNNAvvvNNvvvvNvAvNvvNNvNNNvNAANAAAAAvvAvvckfsirq86&",
" o;tdjxnbANAAANAANNMAANANAAAANNAAAAAAAAANMAAAAAAAAAAAAANNAAANNNNvvvAANvvNvNAAvbvNbNNvNBvvNvvbNvvvvNvAvvvAAvAAAvNvvAvNvckbauur74%",
" X;ushxnBANMNAAANNAAvAAAAAMvvcNvNvcNAAMAANNAAANAAAANAAAAAAAANMNvAAAAcvANvANAAvAvvvvvNvvvANvNNAvANvvvNvNAcAAAAAAAAAvcvAMkgghuu041",
" X;ushxzBAvNAAAMNAAAAAAAANcvNNcvAvNAvvAMAANNAAANAAAAAMAAAAAAANvcAMAvvcvAANAvNcvvNNvvvvNvvANvvvNAvvvvcANvvNAAAcvAAAvNvvmvgzirr84%",
" o;tsdxnBvNNNNNvAAANAAANNNNNNAAAAANNNNNNAAAMAAANAAAAAAANAAAAAANNANANvNAANvcvvvvvvbvAvNANAvNAvvAAvNcvAABNAAAAvNAAAAvAcvxNvguuqe41",
" X;tdjxnBAAAAAAAAAANNNAcAvAAAAAAANNcAAAANNAMANAAAAAAAAAAAAAAvMANAAAvNAAvvANAvNNvANcvAvvAAAvcNvvvNvAAAvvANAAAAAAAAAcANvmcvhseyw4<",
" o8usjxzvAAANAAAAANMNAANvAAANAAAANvANAANAANAAAAAAAAAAAAANAAANAAAAvNNAAAvvNvvvvNvNNvAvNANANvvvvvNvvAANvvAAAAAAcAAAAANANZNglsu074<",
" o;ushxzbAAAAAANAAAAvMAvvNvvAvAANcNvNAAAAAAAAAAAAAAAAAAAAAMNAAAAANNcNAvvNvBvvAvNAvvAAvvvvvvvvvNvvvNvcNNvAAcAAvAAAAANcvcklzuuq74<",
" X8idjxnBAANMNAANAAMAANAAcAcAAANvAvNcNNAANMNMNAAAAAAANNAAvNAAAAvAAAAAvvNNvNNNvANNAAAvANvvNvNNNNNNNvvvANAAvAAAAAAAAAcNvZMblusr06<",
" o8usjxnBAANNNAAAANAAvANANNNAAANANNAvvAAANAAAAAAAANAAAAAMNAAAAAMAANAANNvAvANvNvvAAvNAAAvANvAANvNAvvNAvANvAAAAAAAAAAvAAZkfzueu77<",
" X8udjxnBAAAANAMNNNAAMAvAAAAAMNAAAcNvMAAAAAAAAAAAAAAAAAMNNAAAANAANNAAvAvvNvNvvNAvcANAvcAvNvNABNvNvvNNNANAAcAAAAAAAANAAZcvasaue81",
" X;idhxnVAANNANAMANMAAAAAAAAAAvANAvAAAANNAAAAMAAAAAAAAANNAAANNvNAAAvANNANAvvAAvAANvANvNAANANvvAvvNvABAAvvAcvAAAAAAAAAvCNvagaue4<",
" X8ushxnBAANMNAvAAAAANAAAAAAAANMAAAAAMAAAAANvAAAAAMAAAAAANAAcNNAAAcNNcANAvAcvANMAAAvAvANAvvAvANNNNvNvvANvcNvAvAAAAAAAACjvlhaye41",
" X8udhxnBAAAAvcvAAAAAAAAAAAAAAAAvvAAvAAAAAAAAAAAAANAANAAAAAMAAANNvNAvNAAvANvAAAAANANNAvNAANNANvvvAvcvvAAANAvAAAAAAANAAZkvzgsqe8<",
" o;ishxnVAAAAvNNvAAAAAAAAAAAAAAAMAANNAAAAAAAAAAAAAAANAAAANNAAAAAvNANNAANvcANAvANAAMNAAcAvvANcvvNvvNvvNAANvAAAAvMAAAvAAxMvzhr076<",
" X8udjxnBAAANNcAAAcNAAAAMAAAAANAAAcAAAAAAAAANNAAAAAAAAAAAANNAAvNNvANAvvAAAAvAvANAAcAvAcANAvNNvvvAvNvNAcvvAAAcAAAAAAAAvCcblhaue61",
" o;ishxnBAAAAANvvvNAAAANAAAAAANAAvAAAAMAAAAAAAAAAAAAAAAAAAAANvNvANvNAcAAcAAAMAAAANAAANvAAvAAvcNvcvvvvvAvvvNAAAAAANAAvAxMfaurue9%",
" X:usjxnVAMAAvvAcAANAAAAAAAAAAAAAvvAAAAAANAAAAAAAAAAAAAAAAANNvvNvANANvvMAAvAAAAAANAcAAAANAvvAvAANvvANvvvvvNAAAAcAAAvAAxNghgeue9%",
" o;usdxnBAAAAANcAvAAANMAAAAAAANAcANNAAAAAAAAMAAAAAAAAAAAAAANNcAvAAANAvAANAAAAcAAANAAAAAANANANAAABAAAvvcvBNAcAvvNAcAAvNMkzlsauw9&",
" o8tihxnBAAAAANAAAAAcAvNANNAAANNNAANAAAAAAAAANAAAAAAAcANAAAAcvNANvvAvNAAAANAvvNAvAvAAAAccvvAvAAvvAAvvcvvvAAvAAAAAANAvvcclzsru09<",
" X;rdjxnVAAAAANANAAAAAAANAMAAAvcNAAAAAAAAAANANANAAAAAAAAAANAvNvANAcNcAvAcAAvAAAAcANAAANvNANANNvvNANvvvvANNvNvcANvvANcAmkgagau76<",
" o:usjxnBAAAAAAAAAMAAAAAvAAAAANAAAAAAAAAAAAANcAAAAAAAAAAANAANvvAANAvAAANAAvAcNcvNvAAANNNAAAAvvvNvAvANvvvvAAvvvAvAAvANvcvvahau79&",
" X;idhxmBAANAAAAANAAAAAAAAAAAcAAAAAAAAAAAAAAAAAAAAAAAAAAAvcNNAANAvNAvAAAAvNANvvAANANvNAvAANNvANvAANNAANAANvNAAAANANvvNCklauau94<",
" X8udjxnBAAAAAAAAAAAAAAAAANAAAAAAAAAAAAAAAAAAAAAAAAAAAAAANAAANAcvvAANANAAvANvvAcAAANvAcAANcvvNvNcAANNNvAANAvNvNNAvvvvvxkvluuqe73",
" o;idhxnBAAAAAAAAAAAAANAAAvMAAAAAAAAAAAAAAAAAAAAANAAAAANNMNAAvvANAAcANAAAcAvNvANNAvvAcAAvAvvNNNvvNvAvvvNNvNNvvAAcvNNvNMNvsgsuw9<",
" o;rpjxnBAAAAAANAAAAAAAAcvAAAANAAAAAAAAAAANAAAANAAAAAAAAAvANcAAAAMAAAAAAAvNNAAAvvcvNNAAvANAAvvvNvNAANvNNNAAvAvAvvANAAvmkfaaeu74%",
" X;tdjxnbAAAAAAANAANNAAMNAAAAAAAAAAAAAAAAAAAAAAMAAAANNMAAAAvANNAAAAAAAAANAvAvvAvvNvAAAAvNAvvAAvcvAAAAvvNNvvvANNvvNAvvNccgsusy74%",
" o;tsjxnBAAAAAAAAAcNAAAMcAAAANAMNAAAAAAAAAAAANAAAAANvvAMvAvcAvANANAAvNNANNcAvAAcNvAvNAAvNvNvNAvvvAAANvvvvvvNvvcvNBNvvvxvlluuq04<",
" X8usjxnBAAAAAAAAAAAAvvAAANNvAAAANAAAAAAAANNAAAAAAAAAAAvAcANANAAAAAAAAMAvANAAvvNvANANAvAAAvNNvvvvNvcNANvvNNAcvvAANAANvCcbzhuy86<",
" X;idjxnBAAAAAAAAAAAANvAAAAAAAANNAAANMAAAAMNAAAAAAAAAMAAANANAAAAAAAAMAAcAAAvAvvNAANAcNNAAAANNvNANNNNAANNNNAvvvNNNNAvvvMklsuuqe7<",
" X8usjxnvAAAAAANAAAAvMAAAAAAANNAMAAAAAAANAAAAAAAAAAAAAAvvANAMAMAAAvAAvNvAANAvNNvANAvNANcANANAAAAAANAAvNAAANvvvvvvANvvvckfasrr04%",
" X8ushxnBAAAAANNAAAvAAANMNvAAvAAANNNAAAANNAAAAAAANAAAvAAAAAMvAAAAAAAcNcAAANAvvNAAvANAAANvAMAAAAAAAAAAvNNvAcvvANNAvNvNvxkbaurue41",
" o8idjxnBAAAANMAAAcvAAAvAAAvMvAANAAAAAAAAANAAAAAMAAAANAAvAAvAAAAMAAvvAAAANvANNAAANNAAAAANNAAAAAAAAMAAAAAvvAvvNAANvANAvCklauer84<",
" XqusjxnBAAAAvAAANcNAAAANAAMANAAAAAAAAAAMAAAAAAAAAAAAAcvNMANAANcAAAANAANAAAvcAAvcNAANAvAANAAAAAAAANNAAAAcvANvvAvvAvNANZklaasre61",
" =8idjxnVAAANAANvvNAAMAAAAAAAANAAAAANAAAANAAAAAAAAAAAANAAANAANAAAAvAAAAAcNNNAANANAANvcNAcvAAAAAAANNcAAAAvvAvvNvNAvANAvZjzhgrqe6<",
" X;updxnBNMNMAvvvAAAvAAAAAAAAAAAAAAAAMAAAAAAAAAAAAAAAAAAAvANvAAAAvAAAAANcvNNAvANAAcAAANAAAAANANAAAAAAANAAAAAAAvNvNNAvvxvvgiuu041",
" o;tdjjnbAvAANMNNANNNAAANAAAAAMAAAAAAAAAAAAAAAMAAAAAAAAAAAcAAAAAcvAAANcvNvAAANNANvAvNAAAAAAAAcAvNAAAANvAAcAANANvvAvAAcxvvauuu06<",
" X:tsjxzbcAAAAAvAANvAMAMANAMANAAAMAAAAAAAAAAAAAAAAAAAAAAANNAAAvvAAAANNvvAAAAAAAAAvNNcvAAAAAANNMvMAAAMAAAvMAvNAAvAAANAvxMgguue741",
" X8usjxzBAAAANAAAcvAAAvNAAAAAANNAAANAAAAAAAAAAANANAAAAAAAAAAAMNAAAAAcvvvvAAcvANNANNvAAAAAANvMNNAAAANNAAAvNAANcvAAvAvvNCvgghru74<",
" XqidjxzlAAAAAAANAAMAvNAAANAAAAANAAAAAAAAAAAAAMAAAAAAAAAAAAAMvNAvANNAvvNANvMAvMANvAMAAAAAAAAvANAAvNMAAAAAvAAvvAAvNvvNAckfzsay86&",
" X8usjsnBAAcAAAAAAANMvAAANAAANNvAAAAAAAAAAAAAAAAAAAAAAAAAAAAANAAANAvBcNAAAAAAANAcvANAAAAAAAANMAANNNAAAAAAAAMcAANAvvNAvckgzss076%",
" X8tsixnVAvAAAAAAAAAAAAAAAAAAAMNMAAAAAAAAAAANAAAAAAAAAAAANAAAvAcAvNvvNANvAAANAAAANAAAAAMAAAAAAANANAAAAAAAAANAAAANvAcvvcMfgurqe5&",
" o8uijxzBAAAAAAAAAAAAAAAAAAMAANAAAAAAAAAAAAAAAAAAAAAAAAAAAANAAAAvvNNNAAAAAAAAAAAAAAAAANNAAAAAANvcAANANNAAAAAAANNNAvvvvmvzaurr74<",
" X9tdhhnBNAAAAAAAAAAAAAAAAMAvNAAAAAAAAAAAAAAAAAAAAAAAAAAAAAAMANvNNcNAAAAAAAAAANMAAAAAMvAANAAAANcNAAAANMAAAAAAMAANAvNvNxNgasaq741",
" X8rshxnbAAAAAAAAAANNNAAANAvMAAAAAAAAAAAAANAAAAAAAAAAAAAAAMAAvAvAcAAANAAAAAAAAAAAAAvNvcAANAAAAAAAAAAAAAAMAAANNAAMAvvAAxMglgsr06<",
" X8ishxmBAAAAAAAAAAAANAAAANvvAAANAAAAAAAAAAAAAAAAAAAAAAAAAAAANAcvNAAvNAAAAAAAAAAAAAAANAAAANNNAAAAAAAAAAAAAANNAAAANNcAAmvfzhaq77%",
" X8udjxnBAAAAANAcNNNcAAAAMAAAAAANAAAAAAAAAMAAAAAAAAAAAAAAAAANNvvAAAvMAAAAAAAAAAAAAAAAAvAAAMNNAAAAAAAAAAAAAANAAAAANAAAACclhsue06&",
" o;udjxnVAAAANAcAAAvNAAAAAAAAAAAAAAAAAAMAAAAAAAAAAAAAAANAAAMAvvANAcAAAAAAAAAAAAAAAAAAANAANAANAAAAAAAAAAAAAAAAAAANAAAANCNfsheu04%",
" X;isjxnBAAAAAAAANAAANNANAAAAAAAAAAAAAAAAAAAAAAAAAAAAAAAANAvNvAAANAAAAAAAAAAAAAAANNAAAAcvMNAANAAANAAAAAAAcAAAANAAAAAAAmMlgurq841",
" o8udjxnBAAAAAAAAAANAMvMAAAAAAAAAAAAAAAAAAAAAAAAAAAAAAAAAAMvANAAANAvAAAAAAAAAAAAAAMNAAAvvcAAAAAANMAAAAAANNAAAAAAAAAANAZMbauuq74<",
" X8usjxnBAAAAAAAAAMAAvNAAAAMAAAAAAAAAAAAAAAAAAANAAAAANAAANNvcAAAvAANNAAAAAAAAAAAAAAANNNNNNAAAAAAAAAAAAAAAAAAAAAAAAAANAZNvaser86%",
" X;usjxnVAAAAAAAAAAANAvAAAAAvMAAANAAAAAAAAAAAAAMNAAANAAvAAAAAAvAAAMANAAAAAAAAAAAAAAAANAAANNAAAAAAAAAAAAAAAAAMAAAAAAAAACMvzueuq41",
" X9usjxnBAAAAAAAAAANNAAAAMNNAAAANAAAAAAAAAANAAvAAAAAAMAAAMAANcNNAAAAANAMAAAMAAAAAAAAAAAAAvMAAAAAAAAAAAAAAAAcAAAAAAAAAAZMvzhuee6%",
" o8idjxnBAAAAAAAAAAAAAAAAAAAAAAANANAAAAAAAAAANAAAAAAAAcANAAAAAAANAANANAAAAAAAAAAAANMAMvNNNvNMAAAAAAANANAAAANAAAAAAAAAAmNvags077<",
" XqusjxnBAAAAAAANAAcAAAANAAAAAANcAAAAAAAAAAANcAAAAAAAAAAAAANAAMAAAAAAAAAAAAAANAAAAAAAAAAAANAAAAANAMAAAAAAAAAAAAAAAAAAACcvggsqe4%",
" =9udhxnBAAAAMAAcAAAANAAAAAAAAAAAAAAAAAAMAANAAAAAAAANAAAAAAAANAAAAvAAAAAAAAAANAANAAAANANvvAAAANAAANAAAAAAAAAAAAAAAAAANmkvlgaue41",
" X8isjxnBAAAAAAAAAAAAANMAAAAMNAAAAANAAAAAAAAAAAAAAAAAANAAAAAAAAAANAAAMAAAAAANAAANNAAAAMNMAAMANAAAAAAAAAAAAAAAAAAAAMAAACNvzhaye9%",
" o8ushxnBAAAAAAAAAAAANAAAAAAAAvMAANNAAAAAAANAAAAAAAAcAAAAAAAAAAAAAAAAAAAAAAAAAAAAAAAAAAvNvAAAAAAAAAAAAAAAAAAAAAAANANANZMvzhau04<",
" X8udjxnBAAAANAAAAAAANAAAANNANAAAcAAAAAAAAAAAAAAAAAcAAANAAAAAAAAAAMAAAAAAAAAAAAAMAAAAANANNcANAANAAAAAAAAAAMNAAAAAAAAAAZMvlgsu64<",
" X;idhxnVAAAAAAAAAAAAANAAMvAvAAAAAAAAAAANAAAAAAAAAANAAAAAAAAAAAAAAAAAAAAAAAANAAAAAAAAAAAAAAvAANcAAAAAAAAAAAAAAAANAMNNACNvlsau74<",
" X8ushxnBAAAAAAAAAAAAAAvNvAAAAAAAAAAAAANAAAAAAAAAAAAAAAAAAAAAAAAAAAAAANNAAAMNAAAAAAANAAAAcNAvAvAAAAAAAAAAAAAANAAANNNANCcvzyay79<",
" X8udjxnVAAAAAAAAAAAAANANAAAANAAAAAAANcAAAAAAAAAAAAAAAAAAAAAAAAAAAAAAcAAAAAAAAAcAANNAAAMAvAAAAAANAAAAAAAAAAAAAAAAAANAAZMlzhuue61",
" o;isjxnBAAAAAAAAAAAAAAMvAAAAAMNAAAAAAAAAAAAAAAMAAAAAAAAAAAAAAAAANAANAAAANAAAAAAAAAAAAAAvAMAAAAAcAAAAAAAAAANAAAvANAABAZMblhuue6<",
" o;ishxnBAANAAAAAAAAAAAANNAAMAAAAAANAAAAAAAAAANAAAAAANAAAAAAAAAAAAAAAAAAANAAAAAAAAAAAAANAMvAAAAANAAAAAAAAAANAANNNNAABAMMblgau07%",
" X8usddjz00bNAAAAAAAAAAAAAANAAAAAAAAAAAAAANNAvAAAAAAAAAAAAAAAAAAAANcAAAANAAAAAANNAAAAAANAvAAAANAAAANAAAAAAAAAAAAAAB0qqclgzhaye61",
" X;tdhs69qq00AAAAAAAAAMAAAAAAAAAAAAAMAAAAANccAAANAAAAAAAAAAAAAAANAAAAAAAAAAAAAAMAAAAAAAAvNAAAAAAAAAAAAANAAAAAAAAANqqqq@7glhau04%",
" o8usd47@q0qqNAAAAAAAAAAAAAAAAAAAAAAAAAAAAANAANNAAAAAAAMAAAAAAAAAAAAANAAAAMAAAAAAAAAAAAcAAANAAAAAAAAAAAAAAAAAAANBbq#q#0@5hhau07%",
" o8uid468bb00NAAAAAAAAAAAAAAAAAAAAAAAAAAAAAAAAAAAAAAAAANAAAAAANAAAAANAAAAAAAAAAAAAAAAAANAAAANAAAAMAANNNNAAAAAAAABb#qqw075hhar061",
" X8tdpO7xAAB0bAAAAAAAAANAAAAAAAAAAAAAAAAAAAAMvAAAAAAAAAAAAAAAAAAAAAAANAAAAAAAAAAAAAAAAAAAANAAAANAAAAvMAMNMAAAANNb0qbnV08@guiu06%",
" o:uip46zABb00AAAAAAAAAAAAAAAAAAAAAAAAAAAAAANAANAAAAAAAAANAAAAAAAANANAAAAAAAAAAAAAAAAAAAMAvAAAAAAAANvNNNAAAAAAAAN0qqbB0@54uuue91",
" X;yuu357zz88nBBBbBBBVBbVBBVBVBBVBBBVBBvBBBnBVBBBBBBVBBBbBBBVBbBBBBlBBBbBBBVBVBBVBBBBBbBBlBBBBbBBBBbbVBlBVBBVBBBbn@999864pfptw5<",
" X-9iss257666mnnnnnnnznnnnzznnnnnnnnnnznnnznnznnmnnnnnnznnnnnnnznnznnnnnmnnnnnnnnnnnnnnzgnnnznnnnxnnznhnnnznnnnnnxj6@+54ppaue05<",
" X-etiiapd4ssxxxxxxxhxxxxxhxxxxjxxxxxxxxxxxxdxxxxxxxxxxxxxxhxxxhxxxxjxxxxxxxxxxhxxxxxxxxxxxxxxxxxsxhxxhxhxjjxxxxxxds44s2ysie002<",
" X=qryisfjdhjjjhjjjjjjjjjjjjjjjjjjssjjjhhjhjjhjjjjjhjhjhjjjhjjjhjjhjjjhjjhhhjjhjjjjjjhshjjsjjjhjjhjjdsijhsjjjjjjhjddddsiauweq84<",
" X40weyuasssdssdudsssdsddsdsdssdsssidsdssdissdssdsdsdssdsdsddrddsddssdsddsdsdssdssdddisdiddssdtrdsdsstdrsdiddsdssssssisputew983,",
" X290qeryiuiuiuiiiruiuiuiuuuutuiuiriuiriuriuuiuiiuiuuuiuiuuuqrruuuiriuuuuiuiuiuuiuuuuiurqquiuiriuiqtquirruqriuiuuiuiriutrwq78731",
" .2689qqwrerereeeeqree000rq0qe00reereree8eqrqeqeeq0qerre0rr88qreqqeqqerrereeerqrrerreeq70qqe08ereqee0q08q88q0reereq7qeew8085642%",
" X&1255666667664646774464444644=47767747444474444746465765464744644446765743466764467744454=54445554=447=44=7443444444435341<<<,",
" XX%%%%<<111<&1<&<<1<%11%<<&1%&%%<1<1%%<%1%<%<1%1%%11&%<<<&<1<<<11%1&%1%1<<<&<1<%<1<<11%1%&%%&%&%1%&%<&%%&%%1%11%1%<%1%<%%<%%%%."
};
